<mxfile host="app.diagrams.net" modified="2022-10-11T12:31:44.163Z" agent="5.0 (Macintosh; Intel Mac OS X 10_13_6) AppleWebKit/537.36 (KHTML, like Gecko) Chrome/104.0.5112.114 YaBrowser/22.9.1.1081 Yowser/2.5 Safari/537.36" etag="VvthaTc36ucLdZbI6siq" version="20.4.0" type="github">
  <diagram name="Page-1" id="e7e014a7-5840-1c2e-5031-d8a46d1fe8dd">
    <mxGraphModel dx="2066" dy="1165" grid="1" gridSize="10" guides="1" tooltips="1" connect="1" arrows="1" fold="1" page="1" pageScale="1" pageWidth="1169" pageHeight="826" background="none" math="0" shadow="0">
      <root>
        <mxCell id="0" />
        <mxCell id="1" parent="0" />
        <mxCell id="2" value="Thread 1" style="swimlane;whiteSpace=wrap" parent="1" vertex="1">
          <mxGeometry x="202" y="100" width="765.5" height="570" as="geometry" />
        </mxCell>
        <mxCell id="7" value="Resume" style="" parent="2" vertex="1">
          <mxGeometry x="88" y="50" width="242" height="60" as="geometry" />
        </mxCell>
        <mxCell id="rIlqIsQJAAr4Jk43ZszY-41" value="- uuid: String&lt;br&gt;- fullName: String&lt;br&gt;&lt;span style=&quot;background-color: initial;&quot;&gt;- contacts:&amp;nbsp;&lt;/span&gt;Map&amp;lt;ContactType, String&amp;gt;&amp;nbsp;&lt;span style=&quot;background-color: initial;&quot;&gt;&lt;br&gt;&lt;/span&gt;&lt;span style=&quot;background-color: initial;&quot;&gt;- sections:&amp;nbsp;&lt;/span&gt;Map&amp;lt;SectionType, String&amp;gt;&amp;nbsp;&lt;span style=&quot;background-color: initial;&quot;&gt;&lt;br&gt;&lt;/span&gt;" style="rounded=0;whiteSpace=wrap;html=1;fontStyle=0;startSize=23;" vertex="1" parent="2">
          <mxGeometry x="88" y="110" width="242" height="90" as="geometry" />
        </mxCell>
      </root>
    </mxGraphModel>
  </diagram>
</mxfile>
